<mxfile host="app.diagrams.net" agent="Mozilla/5.0 (Windows NT 10.0; Win64; x64) AppleWebKit/537.36 (KHTML, like Gecko) Chrome/135.0.0.0 Safari/537.36" version="26.2.13">
  <diagram name="Page-1" id="rfftAQKfuYQgDx3ICIje">
    <mxGraphModel dx="1044" dy="562" grid="1" gridSize="10" guides="1" tooltips="1" connect="1" arrows="1" fold="1" page="1" pageScale="1" pageWidth="850" pageHeight="1100" math="0" shadow="0">
      <root>
        <mxCell id="0" />
        <mxCell id="1" parent="0" />
        <mxCell id="7TKNa9vqb498_ECOMDnv-5" value="passenger" style="shape=umlActor;verticalLabelPosition=bottom;verticalAlign=top;html=1;outlineConnect=0;" vertex="1" parent="1">
          <mxGeometry x="50" y="190" width="30" height="60" as="geometry" />
        </mxCell>
        <mxCell id="7TKNa9vqb498_ECOMDnv-6" value="admin" style="shape=umlActor;verticalLabelPosition=bottom;verticalAlign=top;html=1;outlineConnect=0;" vertex="1" parent="1">
          <mxGeometry x="50" y="330" width="30" height="60" as="geometry" />
        </mxCell>
        <mxCell id="7TKNa9vqb498_ECOMDnv-8" value="Bank" style="shape=umlActor;verticalLabelPosition=bottom;verticalAlign=top;html=1;outlineConnect=0;" vertex="1" parent="1">
          <mxGeometry x="800" y="250" width="30" height="60" as="geometry" />
        </mxCell>
        <mxCell id="7TKNa9vqb498_ECOMDnv-12" value="" style="swimlane;startSize=0;" vertex="1" parent="1">
          <mxGeometry x="210" y="110" width="500" height="470" as="geometry" />
        </mxCell>
        <mxCell id="7TKNa9vqb498_ECOMDnv-13" value="Login" style="ellipse;whiteSpace=wrap;html=1;" vertex="1" parent="7TKNa9vqb498_ECOMDnv-12">
          <mxGeometry x="10" y="20" width="120" height="50" as="geometry" />
        </mxCell>
        <mxCell id="7TKNa9vqb498_ECOMDnv-14" value="check for Availability" style="ellipse;whiteSpace=wrap;html=1;" vertex="1" parent="7TKNa9vqb498_ECOMDnv-12">
          <mxGeometry x="10" y="90" width="110" height="50" as="geometry" />
        </mxCell>
        <mxCell id="7TKNa9vqb498_ECOMDnv-15" value="book ticket" style="ellipse;whiteSpace=wrap;html=1;" vertex="1" parent="7TKNa9vqb498_ECOMDnv-12">
          <mxGeometry x="10" y="150" width="120" height="50" as="geometry" />
        </mxCell>
        <mxCell id="7TKNa9vqb498_ECOMDnv-16" value="payment" style="ellipse;whiteSpace=wrap;html=1;" vertex="1" parent="7TKNa9vqb498_ECOMDnv-12">
          <mxGeometry x="10" y="210" width="120" height="40" as="geometry" />
        </mxCell>
        <mxCell id="7TKNa9vqb498_ECOMDnv-17" value="cancel ticket" style="ellipse;whiteSpace=wrap;html=1;" vertex="1" parent="7TKNa9vqb498_ECOMDnv-12">
          <mxGeometry x="10" y="260" width="120" height="40" as="geometry" />
        </mxCell>
        <mxCell id="7TKNa9vqb498_ECOMDnv-18" value="flight schedule" style="ellipse;whiteSpace=wrap;html=1;" vertex="1" parent="7TKNa9vqb498_ECOMDnv-12">
          <mxGeometry x="10" y="320" width="120" height="30" as="geometry" />
        </mxCell>
        <mxCell id="7TKNa9vqb498_ECOMDnv-19" value="check for flight" style="ellipse;whiteSpace=wrap;html=1;" vertex="1" parent="7TKNa9vqb498_ECOMDnv-12">
          <mxGeometry x="5" y="380" width="120" height="50" as="geometry" />
        </mxCell>
        <mxCell id="7TKNa9vqb498_ECOMDnv-20" value="choose seat" style="ellipse;whiteSpace=wrap;html=1;" vertex="1" parent="7TKNa9vqb498_ECOMDnv-12">
          <mxGeometry x="300" y="120" width="120" height="80" as="geometry" />
        </mxCell>
        <mxCell id="7TKNa9vqb498_ECOMDnv-21" value="Validate card details" style="ellipse;whiteSpace=wrap;html=1;" vertex="1" parent="7TKNa9vqb498_ECOMDnv-12">
          <mxGeometry x="300" y="240" width="120" height="80" as="geometry" />
        </mxCell>
        <mxCell id="7TKNa9vqb498_ECOMDnv-41" value="" style="endArrow=none;dashed=1;html=1;rounded=0;exitX=1;exitY=0.5;exitDx=0;exitDy=0;" edge="1" parent="7TKNa9vqb498_ECOMDnv-12" source="7TKNa9vqb498_ECOMDnv-15">
          <mxGeometry width="50" height="50" relative="1" as="geometry">
            <mxPoint x="250" y="210" as="sourcePoint" />
            <mxPoint x="300" y="160" as="targetPoint" />
          </mxGeometry>
        </mxCell>
        <mxCell id="7TKNa9vqb498_ECOMDnv-42" value="&amp;lt;&amp;lt;extended&amp;gt;&amp;gt;" style="edgeLabel;html=1;align=center;verticalAlign=middle;resizable=0;points=[];" vertex="1" connectable="0" parent="7TKNa9vqb498_ECOMDnv-41">
          <mxGeometry x="0.0837" y="-1" relative="1" as="geometry">
            <mxPoint as="offset" />
          </mxGeometry>
        </mxCell>
        <mxCell id="7TKNa9vqb498_ECOMDnv-27" value="" style="endArrow=classic;html=1;rounded=0;" edge="1" parent="1" source="7TKNa9vqb498_ECOMDnv-5" target="7TKNa9vqb498_ECOMDnv-13">
          <mxGeometry width="50" height="50" relative="1" as="geometry">
            <mxPoint x="110" y="230" as="sourcePoint" />
            <mxPoint x="160" y="180" as="targetPoint" />
          </mxGeometry>
        </mxCell>
        <mxCell id="7TKNa9vqb498_ECOMDnv-28" value="" style="endArrow=classic;html=1;rounded=0;entryX=0;entryY=0.5;entryDx=0;entryDy=0;" edge="1" parent="1" source="7TKNa9vqb498_ECOMDnv-5" target="7TKNa9vqb498_ECOMDnv-14">
          <mxGeometry width="50" height="50" relative="1" as="geometry">
            <mxPoint x="130" y="250" as="sourcePoint" />
            <mxPoint x="180" y="200" as="targetPoint" />
          </mxGeometry>
        </mxCell>
        <mxCell id="7TKNa9vqb498_ECOMDnv-34" value="" style="endArrow=classic;html=1;rounded=0;" edge="1" parent="1" source="7TKNa9vqb498_ECOMDnv-5">
          <mxGeometry width="50" height="50" relative="1" as="geometry">
            <mxPoint x="170" y="330" as="sourcePoint" />
            <mxPoint x="220" y="280" as="targetPoint" />
          </mxGeometry>
        </mxCell>
        <mxCell id="7TKNa9vqb498_ECOMDnv-35" value="" style="endArrow=classic;html=1;rounded=0;" edge="1" parent="1" source="7TKNa9vqb498_ECOMDnv-5">
          <mxGeometry width="50" height="50" relative="1" as="geometry">
            <mxPoint x="170" y="380" as="sourcePoint" />
            <mxPoint x="220" y="330" as="targetPoint" />
          </mxGeometry>
        </mxCell>
        <mxCell id="7TKNa9vqb498_ECOMDnv-36" value="" style="endArrow=classic;html=1;rounded=0;" edge="1" parent="1" source="7TKNa9vqb498_ECOMDnv-5">
          <mxGeometry width="50" height="50" relative="1" as="geometry">
            <mxPoint x="170" y="440" as="sourcePoint" />
            <mxPoint x="220" y="390" as="targetPoint" />
          </mxGeometry>
        </mxCell>
        <mxCell id="7TKNa9vqb498_ECOMDnv-38" value="" style="endArrow=classic;html=1;rounded=0;" edge="1" parent="1" source="7TKNa9vqb498_ECOMDnv-6">
          <mxGeometry width="50" height="50" relative="1" as="geometry">
            <mxPoint x="170" y="500" as="sourcePoint" />
            <mxPoint x="220" y="450" as="targetPoint" />
          </mxGeometry>
        </mxCell>
        <mxCell id="7TKNa9vqb498_ECOMDnv-40" value="" style="endArrow=classic;html=1;rounded=0;" edge="1" parent="1" source="7TKNa9vqb498_ECOMDnv-6">
          <mxGeometry width="50" height="50" relative="1" as="geometry">
            <mxPoint x="170" y="570" as="sourcePoint" />
            <mxPoint x="220" y="520" as="targetPoint" />
          </mxGeometry>
        </mxCell>
        <mxCell id="7TKNa9vqb498_ECOMDnv-43" value="" style="endArrow=classic;html=1;rounded=0;exitX=0.97;exitY=0.765;exitDx=0;exitDy=0;exitPerimeter=0;" edge="1" parent="1" source="7TKNa9vqb498_ECOMDnv-16">
          <mxGeometry relative="1" as="geometry">
            <mxPoint x="350" y="370" as="sourcePoint" />
            <mxPoint x="510" y="380" as="targetPoint" />
          </mxGeometry>
        </mxCell>
        <mxCell id="7TKNa9vqb498_ECOMDnv-44" value="&amp;lt;&amp;lt;include&amp;gt;&amp;gt;" style="edgeLabel;resizable=0;html=1;;align=center;verticalAlign=middle;" connectable="0" vertex="1" parent="7TKNa9vqb498_ECOMDnv-43">
          <mxGeometry relative="1" as="geometry" />
        </mxCell>
        <mxCell id="7TKNa9vqb498_ECOMDnv-45" value="Source" style="edgeLabel;resizable=0;html=1;;align=left;verticalAlign=bottom;" connectable="0" vertex="1" parent="7TKNa9vqb498_ECOMDnv-43">
          <mxGeometry x="-1" relative="1" as="geometry" />
        </mxCell>
        <mxCell id="7TKNa9vqb498_ECOMDnv-46" value="Target" style="edgeLabel;resizable=0;html=1;;align=right;verticalAlign=bottom;" connectable="0" vertex="1" parent="7TKNa9vqb498_ECOMDnv-43">
          <mxGeometry x="1" relative="1" as="geometry" />
        </mxCell>
        <mxCell id="7TKNa9vqb498_ECOMDnv-47" value="" style="endArrow=classic;html=1;rounded=0;exitX=1;exitY=0.5;exitDx=0;exitDy=0;" edge="1" parent="1" source="7TKNa9vqb498_ECOMDnv-21">
          <mxGeometry relative="1" as="geometry">
            <mxPoint x="650" y="279.5" as="sourcePoint" />
            <mxPoint x="810" y="279.5" as="targetPoint" />
          </mxGeometry>
        </mxCell>
        <mxCell id="7TKNa9vqb498_ECOMDnv-48" value="Label" style="edgeLabel;resizable=0;html=1;;align=center;verticalAlign=middle;" connectable="0" vertex="1" parent="7TKNa9vqb498_ECOMDnv-47">
          <mxGeometry relative="1" as="geometry" />
        </mxCell>
        <mxCell id="7TKNa9vqb498_ECOMDnv-49" value="Source" style="edgeLabel;resizable=0;html=1;;align=left;verticalAlign=bottom;" connectable="0" vertex="1" parent="7TKNa9vqb498_ECOMDnv-47">
          <mxGeometry x="-1" relative="1" as="geometry" />
        </mxCell>
      </root>
    </mxGraphModel>
  </diagram>
</mxfile>
